<svg xmlns="http://www.w3.org/2000/svg" width="21.524" height="21.524" viewBox="0 0 21.524 21.524">
  <path id="Icon_metro-facebook" data-name="Icon metro-facebook" d="M20.508,1.928H6.158A3.587,3.587,0,0,0,2.571,5.516V19.864a3.587,3.587,0,0,0,3.587,3.588h7.175V14.035H10.642V11.345h2.691V9.327A3.363,3.363,0,0,1,16.7,5.964h3.363V8.654H16.7a.673.673,0,0,0-.673.673v2.018h3.7l-.673,2.691H16.023v9.417h4.485a3.587,3.587,0,0,0,3.587-3.588V5.516a3.587,3.587,0,0,0-3.587-3.588Z" transform="translate(-2.571 -1.928)" fill="#0d3436"/>
</svg>
