<svg xmlns="http://www.w3.org/2000/svg" width="21.529" height="21.524" viewBox="0 0 21.529 21.524">
  <path id="Icon_awesome-instagram" data-name="Icon awesome-instagram" d="M10.762,7.481A5.519,5.519,0,1,0,16.28,13,5.51,5.51,0,0,0,10.762,7.481Zm0,9.106A3.588,3.588,0,1,1,14.349,13,3.594,3.594,0,0,1,10.762,16.588Zm7.031-9.332a1.287,1.287,0,1,1-1.287-1.287A1.284,1.284,0,0,1,17.793,7.256Zm3.655,1.306a6.37,6.37,0,0,0-1.739-4.51A6.412,6.412,0,0,0,15.2,2.313c-1.777-.1-7.1-.1-8.881,0a6.4,6.4,0,0,0-4.51,1.734A6.391,6.391,0,0,0,.07,8.557c-.1,1.777-.1,7.1,0,8.881a6.37,6.37,0,0,0,1.739,4.51,6.42,6.42,0,0,0,4.51,1.739c1.777.1,7.1.1,8.881,0a6.37,6.37,0,0,0,4.51-1.739,6.412,6.412,0,0,0,1.739-4.51c.1-1.777.1-7.1,0-8.876Zm-2.3,10.783a3.632,3.632,0,0,1-2.046,2.046c-1.417.562-4.779.432-6.345.432s-4.933.125-6.345-.432a3.632,3.632,0,0,1-2.046-2.046c-.562-1.417-.432-4.779-.432-6.345s-.125-4.933.432-6.345A3.632,3.632,0,0,1,4.417,4.609c1.417-.562,4.779-.432,6.345-.432s4.933-.125,6.345.432a3.632,3.632,0,0,1,2.046,2.046c.562,1.417.432,4.779.432,6.345S19.714,17.932,19.152,19.344Z" transform="translate(0.005 -2.238)" fill="#0d3436"/>
</svg>
