<svg xmlns="http://www.w3.org/2000/svg" width="24.277" height="24.271" viewBox="0 0 24.277 24.271">
  <path id="Icon_awesome-instagram" data-name="Icon awesome-instagram" d="M12.136,8.151a6.223,6.223,0,1,0,6.223,6.223A6.213,6.213,0,0,0,12.136,8.151Zm0,10.269a4.046,4.046,0,1,1,4.046-4.046A4.053,4.053,0,0,1,12.136,18.419ZM20.065,7.9a1.451,1.451,0,1,1-1.451-1.451A1.448,1.448,0,0,1,20.065,7.9Zm4.122,1.473a7.183,7.183,0,0,0-1.961-5.086A7.23,7.23,0,0,0,17.14,2.323c-2-.114-8.01-.114-10.014,0A7.22,7.22,0,0,0,2.041,4.278,7.206,7.206,0,0,0,.08,9.364c-.114,2-.114,8.01,0,10.014a7.183,7.183,0,0,0,1.961,5.086,7.239,7.239,0,0,0,5.086,1.961c2,.114,8.01.114,10.014,0a7.183,7.183,0,0,0,5.086-1.961,7.23,7.23,0,0,0,1.961-5.086c.114-2,.114-8,0-10.009ZM21.6,21.528a4.1,4.1,0,0,1-2.307,2.307c-1.6.634-5.389.487-7.154.487s-5.562.141-7.154-.487a4.1,4.1,0,0,1-2.307-2.307c-.634-1.6-.487-5.389-.487-7.154s-.141-5.562.487-7.154A4.1,4.1,0,0,1,4.981,4.912c1.6-.634,5.389-.487,7.154-.487s5.562-.141,7.154.487A4.1,4.1,0,0,1,21.6,7.219c.634,1.6.487,5.389.487,7.154S22.231,19.936,21.6,21.528Z" transform="translate(0.005 -2.238)" fill="#fff"/>
</svg>
